<?xml version="1.0" encoding="UTF-8"?>
<!DOCTYPE svg PUBLIC "-//W3C//DTD SVG 1.1//EN" "http://www.w3.org/Graphics/SVG/1.1/DTD/svg11.dtd">
<!-- Creator: CorelDRAW 2019 (64-Bit) -->
<svg xmlns="http://www.w3.org/2000/svg" xml:space="preserve" width="300mm" height="300mm" version="1.1" style="shape-rendering:geometricPrecision; text-rendering:geometricPrecision; image-rendering:optimizeQuality; fill-rule:evenodd; clip-rule:evenodd"
viewBox="0 0 30000 30000"
 xmlns:xlink="http://www.w3.org/1999/xlink">
 <defs>
  <style type="text/css">
   <![CDATA[
    .fil2 {fill:none}
    .fil0 {fill:black;fill-rule:nonzero}
    .fil1 {fill:url(#id0);fill-rule:nonzero}
   ]]>
  </style>
  <linearGradient id="id0" gradientUnits="userSpaceOnUse" x1="2221.75" y1="15095.95" x2="9548.9" y2="15095.91">
   <stop offset="0" style="stop-opacity:1; stop-color:#CA5AA6"/>
   <stop offset="1" style="stop-opacity:1; stop-color:#06439E"/>
  </linearGradient>
 </defs>
 <g id="Layer_x0020_1">
  <metadata id="CorelCorpID_0Corel-Layer"/>
  <g id="_2967995366160">
   <path class="fil0" d="M13322.59 14424.37l-226.41 236.42c-191.19,-184.44 -376.5,-276.66 -555.95,-276.66 -115.72,0 -214.67,37.73 -296.85,113.18 -82.17,75.45 -123.26,165.15 -123.26,269.1 0,87.19 34.38,171.02 103.14,251.51 67.08,85.51 208.8,183.6 425.14,294.26 264.98,135.81 444.43,267.43 538.34,394.86 92.24,129.11 138.36,274.14 138.36,435.1 0,224.68 -79.24,415.4 -237.72,572.18 -158.49,156.77 -356.81,235.15 -594.96,235.15 -159.32,0 -311.52,-33.95 -456.59,-101.86 -145.06,-67.9 -264.56,-163.05 -358.47,-285.45l223.89 -254.02c181.12,204.55 373.15,306.83 576.08,306.83 140.87,0 261.21,-45.69 360.99,-137.07 99.79,-91.38 149.68,-198.27 149.68,-320.66 0,-102.28 -32.7,-192.82 -98.11,-271.63 -65.41,-78.8 -213.83,-177.72 -445.26,-296.76 -249.89,-125.75 -419.27,-252.34 -508.16,-379.77 -90.56,-124.08 -135.85,-266.6 -135.85,-427.56 0,-209.59 71.7,-383.55 215.09,-521.87 143.39,-138.33 323.26,-207.5 539.6,-207.49 253.24,0 509,124.07 767.27,372.22l0.01 -0.01zm254.07 -231.27l364.76 0 845.27 2004.49 885.5 -2004.49 62.89 0 880.48 2004.49 860.33 -2004.49 372.31 0 -1197.43 2759.03 -70.44 0 -875.43 -1974.3 -885.5 1974.3 -65.41 0 -1177.33 -2759.03zm4809.88 -1139.36c80.5,0 149.68,28.5 207.54,85.51 57.86,57.01 86.79,125.75 86.79,206.24 0,80.48 -28.93,149.64 -86.79,207.49 -57.86,57.84 -127.04,86.77 -207.54,86.77 -80.5,0 -149.26,-28.93 -206.28,-86.77 -57.02,-57.85 -85.53,-127.01 -85.53,-207.49 0,-80.49 28.51,-149.23 85.53,-206.24 57.02,-57.01 125.78,-85.51 206.28,-85.51l0 0zm-176.1 1134.21l354.72 0 0 2759.03 -354.72 0 0 -2759.03 0 0zm2098.04 -684.03c-174.42,-93.89 -345.48,-101.44 -513.19,-22.63 -150.93,80.48 -248.21,302.64 -291.81,666.48l0 276.65 654.07 0 0 304.31 -656.57 0 0 2223.3 -357.21 0 0 -2864.63c5.03,-224.67 51.15,-409.11 138.36,-553.3 134.16,-278.34 348.83,-422.53 644,-432.59 150.94,-35.21 315.29,0.84 493.06,108.14 -28.51,70.43 -65.4,168.51 -110.69,294.27l-0.02 0zm1665.35 3053.33c-174.42,93.89 -345.48,101.44 -513.19,22.63 -204.61,-155.93 -301.88,-378.09 -291.82,-666.49l0 -1166.99 654.08 0 0 -304.31 -656.57 0 0 -1332.98 -357.22 0 0 2864.63c-3.35,201.2 42.77,385.64 138.36,553.31 157.65,266.59 372.31,407.43 644,422.52 144.23,5.04 308.59,-27.66 493.07,-98.08 -28.52,-70.42 -65.41,-168.51 -110.69,-294.26l-0.02 0.02zm535.83 -3345.12l435.22 0 893.05 1453.69 900.59 -1453.69 432.7 0 -1111.91 1805.8 1182.34 1924.01 -432.7 0 -971.02 -1564.36 -973.55 1564.36 -435.22 0 1189.89 -1924.01 -1109.39 -1805.8zm3373.47 0l742.12 0c414.24,0 695.16,16.76 842.74,50.3 221.37,50.3 401.66,158.87 540.86,325.7 139.2,166.83 208.8,371.8 208.8,614.93 0,204.55 -47.8,383.12 -143.4,535.7 -95.59,152.58 -232.69,268.69 -411.31,348.33 -178.61,79.63 -333.32,119.46 -464.14,119.46l1069.15 1735.39 -457.84 0 -1069.15 -1735.39 -485.52 0 0 1735.39 -372.31 0 0 -3729.71 0 -0.1zm372.31 364.68l0 1267.59 641.48 5.02c248.21,0 432.27,-23.47 552.18,-70.41 119.91,-46.95 212.99,-122.41 279.24,-226.36 66.24,-103.96 99.37,-220.48 99.36,-349.59 0,-124.07 -33.96,-237.25 -101.88,-339.53 -67.92,-102.28 -156.39,-175.63 -265.41,-220.06 -109.01,-44.43 -291.81,-66.65 -548.4,-66.65l-656.57 0 0 -0.01z"/>
   <path class="fil1" d="M3815.98 12368.06c-117.37,-44.78 -237.82,-83 -362.04,-113.68 -9.34,-2.67 -18.87,-4.36 -27.81,-5.55 -17.37,-3.28 -34.06,-5.56 -49.15,-5.96 -23.63,-1.19 -43.19,1.09 -59.38,5.36 -16.48,3.97 -28.4,10.52 -35.15,18.76 -7.05,8.94 -8.74,19.56 -4.07,31.87 30.78,80.81 59.88,164.6 87.78,249.48 4.76,14.5 15.49,29.68 30.78,45.37 14.89,14.99 34.66,30.68 57.59,45.57 22.74,14.99 48.06,29.29 75.47,41.79 27.01,12.61 55.51,23.63 84.01,32.66 170.4,50.93 336.02,112.29 498.08,182.77 3.58,1.39 7.15,2.78 10.83,4.47 20.95,8.34 39.42,14.2 55.8,17.97 18.97,3.27 34.85,4.17 47.37,1.49 11.81,-2.98 20.35,-8.54 24.03,-17.57 3.57,-9.34 3.27,-21.35 -2.18,-36.24 -33.37,-89.84 -66.54,-180.48 -100.89,-271.32 -5.07,-13.7 -14.7,-29.48 -27.61,-45.57 -13.11,-15.58 -29.59,-32.46 -48.26,-48.94 -18.67,-15.69 -39.82,-31.87 -61.86,-45.67 -22.15,-14.49 -46.37,-26.9 -70.5,-37.52 -33.37,-14.3 -66.53,-27.8 -100.4,-40.91l-22.44 -8.63zm581.3 290.18c-16.29,-6.16 -30.09,-8.24 -40.71,-7.25 -10.43,0.8 -17.68,5.07 -20.86,12.61 -3.47,7.94 -2.68,19.06 2.68,32.66 35.36,91.34 69.71,182.37 104.47,271.92 5.86,14.89 15.79,32.07 29.19,49.54 13.31,17.97 29.99,36.23 48.46,54.4 18.47,18.56 38.92,36.34 59.98,52.72 21.15,16.77 43.09,31.66 64.44,44.17 128,75.36 253.61,156.66 376.84,243.43 2.48,1.69 5.16,3.37 8.04,5.36 15.59,10.62 29.69,18.57 41.21,23.63 13.8,6.15 24.83,8.83 32.37,8.04 7.75,-0.6 11.92,-5.06 13.01,-12.61 0.99,-7.74 -1.88,-19.26 -8.44,-33.75 -39.52,-87.86 -78.84,-176.91 -118.66,-268.35 -5.96,-13.99 -15.19,-29.98 -26.91,-47.84 -11.82,-16.68 -25.62,-35.15 -41.21,-53.72 -15.99,-18.16 -33.17,-36.23 -51.04,-53.5 -18.07,-17.28 -36.34,-33.06 -54.42,-46.57 -118.46,-88.65 -239.21,-170.95 -362.54,-247.49 -7.34,-4.17 -14,-7.74 -20.55,-11.32 -10.03,-5.66 -19.37,-10.02 -28.2,-13.4 -2.19,-0.89 -4.97,-1.89 -7.15,-2.68zm-1476.48 -457.17c-24.72,-8.24 -53.02,-14.19 -83.91,-18.46 -30.78,-3.57 -64.34,-5.06 -99.1,-3.67 -224.81,8.83 -462.23,47.75 -719.71,134.61 -16.59,5.96 -32.67,11.72 -48.07,17.77 -25.91,9.83 -50.04,20.06 -73.08,30.78 -37.04,16.98 -69.91,33.95 -96.52,49.74 -27.21,15.48 -47.76,30.08 -59.97,41 -6.86,6.15 -11.52,11.51 -13.41,15.58l-0.3 1.1c-1.09,3.17 -0.59,5.66 1.79,7.44 35.95,29.19 68.91,65.72 99.4,108.41 5.06,7.55 19.46,11.62 40.51,14.2 21.55,2.08 49.95,2.18 82.02,1.88 32.87,-1.19 70.11,-3.57 109.43,-6.45 39.22,-3.67 80.83,-7.94 122.63,-13.7 248.55,-33.55 483.19,-33.36 708.1,-12.21 6.06,0.9 11.52,1.29 17.38,1.79 27.51,2.08 53.43,2.08 76.26,1.19 27.51,-1.99 51.44,-6.06 70.21,-12.61 18.67,-5.56 32.27,-14.39 40.21,-25.12 8.05,-9.92 10.53,-22.24 5.76,-35.93 -27.3,-81.11 -55.9,-159.94 -85.99,-236.08 -4.57,-11.52 -15.59,-22.64 -31.77,-32.96 -11.33,-7.75 -25.13,-14.99 -41.41,-21.45 -6.66,-2.58 -13.21,-4.56 -20.46,-6.85zm2220.33 1012.82c-6.66,-0.5 -10.83,3.08 -11.62,9.63 -0.89,6.85 1.69,17.57 7.65,31.27 40.71,90.74 81.22,179.69 121.84,266.26 6.95,14.49 16.78,31.07 29.19,49.04 12.71,17.77 27.01,36.43 43.19,55.49 15.69,18.47 32.97,37.03 50.05,54.01 17.38,17.87 35.15,33.65 51.84,47.65 100.49,83.1 199.59,169.07 297.99,257.62 1.89,1.79 3.97,3.98 6.06,6.16 12.51,10.42 23.24,18.76 31.97,24.52 9.93,6.85 17.97,10.42 22.44,9.73 5.17,0 6.76,-3.48 5.76,-10.42 -0.99,-6.95 -5.56,-17.58 -13.2,-31.77 -44.39,-82.5 -88.28,-167.78 -132.57,-255.94 -6.65,-13.2 -15.98,-29.08 -27.1,-46.26 -10.93,-16.88 -23.84,-34.95 -37.94,-53.51 -13.7,-17.97 -28.5,-36.83 -43.19,-53.71 -15,-17.67 -30.49,-34.25 -44.88,-48.44 -94.44,-92.03 -189.57,-181.38 -286.68,-267.75 -4.87,-4.27 -9.64,-8.14 -14.2,-12.11 -10.43,-8.24 -20.06,-15.09 -28.2,-20.25 -6.16,-3.58 -11.62,-6.36 -16.69,-8.44 -4.27,-1.99 -8.14,-2.68 -11.71,-2.78zm-1484.02 -365.14c-1.99,-0.79 -4.18,-1.39 -6.16,-1.88 -26.52,-7.35 -51.14,-12.02 -72.99,-12.91 -23.83,-1.49 -44.58,1.09 -61.26,6.75 -16.59,5.56 -29,13.9 -35.55,25.71 -7.15,11.52 -8.64,26.01 -3.88,42.69 32.47,111.39 63.75,223.57 94.34,335.45 4.96,18.57 16.68,38.62 32.96,57.88 16.19,19.66 37.14,39.31 61.67,56.69 24.13,18.07 51.54,34.55 80.33,48.05 25.82,12.7 53.13,23.62 80.44,30.97 3.07,0.99 5.95,1.89 9.23,2.48 179.73,47.66 357.08,101.66 530.75,163.91 26.81,10.32 50.45,15.29 70.8,17.37 19.96,1.89 36.15,0 48.76,-5.06 12.01,-5.26 20.16,-13.31 23.43,-25.02 3.28,-11.12 1.99,-26.01 -5.26,-43.58 -40.32,-102.85 -80.83,-208.58 -121.34,-316.79 -6.36,-16.18 -17.28,-34.35 -31.48,-52.71 -14.2,-18.67 -32.08,-37.53 -51.74,-55.1 -20.15,-18.57 -42.59,-35.54 -66.43,-51.23 -23.23,-15.49 -48.36,-29.09 -73.08,-40.21 -55.61,-23.43 -111.51,-46.46 -167.72,-68 -110.22,-42.59 -222.03,-81.11 -335.82,-115.46zm983.95 427.18c-16.48,-4.66 -30.69,-5.46 -41.21,-3.07 -10.43,2.28 -17.68,8.93 -20.66,18.06 -2.48,9.64 -1.19,23.04 5.37,38.72 42.6,106.63 85.29,210.67 128.29,310.94 7.05,17.37 18.97,35.74 34.06,55.29 14.8,18.47 33.37,37.63 53.92,56.19 20.36,18.67 42.7,35.94 65.83,52.22 21.55,14.79 43.8,28 65.05,39.02 1.29,0.79 2.87,1.39 4.56,2.18 135.65,66.52 269.01,139.19 400.38,217.41 19.96,12.21 37.33,20.65 51.34,25.52 14.09,4.47 25.02,6.15 32.07,3.67 7.45,-2.48 10.92,-8.24 11.02,-16.88 -0.4,-9.33 -4.76,-21.24 -13.21,-37.12 -48.85,-93.03 -98.6,-189.12 -147.26,-289.19 -7.35,-15.19 -18.17,-32.67 -31.47,-50.64 -13.31,-18.16 -28.9,-37.32 -45.98,-55.89 -16.98,-18.66 -35.65,-37.72 -54.62,-54.5 -19.46,-17.37 -39.12,-32.56 -57.89,-45.97 -124.62,-85.57 -252.11,-165.59 -381.6,-239.94 -2.49,-1.49 -5.07,-3.28 -7.95,-4.57 -12.11,-6.65 -23.73,-12.01 -34.65,-16.18 -5.56,-2.09 -10.23,-3.78 -15.39,-5.27zm-1612.82 -560.31c-31.28,-10.32 -64.84,-17.87 -99.4,-22.14 -225.9,-27 -460.15,-35.54 -707,-14.69 -5.17,0.89 -10.03,1.19 -15.1,1.59 -36.04,3.57 -70.3,9.83 -101.38,17.87 -35.85,8.54 -67.53,19.65 -93.84,31.27 -25.72,11.52 -45.78,23.73 -58.09,35.84 -12.61,12.41 -17.37,24.62 -13.01,36.23 30.69,76.74 57.8,162.42 81.13,255.24 3.87,16.18 16.58,30.98 36.64,45.37 19.37,14.99 45.98,28.69 76.96,41.1 30.58,12.71 66.53,23.53 104.56,32.36 34.56,7.85 70.6,13.71 107.84,16.98 3.87,0.5 8.14,1 12.41,1 243.58,18.36 482,48.34 716.35,86.56 35.34,5.86 68.41,7.35 97.31,5.36 28.4,-1.78 52.72,-7.74 72.29,-16.38 19.76,-9.33 34.25,-20.94 42.3,-35.63 8.54,-14.6 11.12,-31.67 5.86,-50.74 -27.91,-112.38 -56.8,-224.56 -87.78,-334.26 -4.37,-17.08 -15.79,-33.35 -31.78,-50.03 -16.09,-16.58 -37.14,-32.17 -62.06,-46.27 -17.48,-10.12 -36.84,-19.55 -57.69,-27.6 -8.24,-3.27 -17.28,-6.55 -26.52,-9.03zm2736.88 1093.33c-4.47,-0.5 -6.15,2.68 -5.26,8.93 0.99,6.35 4.67,16.48 11.22,29.78 45.08,86.87 90.26,171.16 135.84,252.96 7.55,13.6 17.68,29.68 29.59,46.26 12.12,17.37 25.22,35.04 39.82,52.72 14.3,17.97 29,35.64 44.29,52.22 15.19,16.58 29.59,31.96 43.49,45.37 82.42,79.91 164.84,160.23 246.86,241.04 1.29,0.69 2.58,2.08 3.67,2.78 11.22,11.02 20.85,19.45 27.71,25.01 7.94,5.86 13.2,8.54 16.38,8.54 2.68,-0.29 2.48,-3.47 0.2,-10.32 -2.78,-6.36 -7.95,-16.08 -15.89,-28.49 -48.65,-76.45 -97.11,-155.67 -145.17,-237.47 -7.35,-12.61 -16.98,-27.5 -27.71,-43.58 -10.52,-15.69 -22.74,-32.57 -35.25,-49.64 -13.01,-17.38 -26.22,-34.35 -39.42,-50.63 -13.21,-16.28 -26.21,-31.57 -38.63,-45.47 -78.64,-85.97 -157.78,-171.75 -237.52,-256.33 -2.88,-3.28 -6.06,-6.35 -9.24,-9.63 -9.23,-9.23 -17.37,-16.48 -24.02,-22.34 -7.26,-5.66 -13.01,-9.03 -17.28,-10.62 -1.49,-0.6 -2.59,-1.09 -3.68,-1.09zm-340.29 5.85c-6.46,0.8 -10.23,4.97 -9.84,13.21 -0.19,7.84 3.48,19.45 11.23,34.74 50.34,98.19 100.78,193 151.72,283.93 8.25,15.39 20.16,31.77 34.66,50.34 14.1,17.97 30.88,36.83 48.16,55.19 17.97,18.17 36.84,36.04 55.8,52.82 17.58,15.39 35.36,29.78 51.74,41.5 1.29,0.99 2.28,1.88 3.67,2.28 105.46,75.55 209.72,153.48 313.49,233.89 16.29,12.61 29.19,21.25 39.52,26.91 10.03,5.46 17.48,7.54 21.25,6.35 4.27,-1.39 4.87,-5.96 2.58,-13.4 -2.28,-7.35 -8.24,-18.77 -17.37,-32.76 -55.21,-84.09 -110.23,-171.75 -164.74,-263.78 -8.24,-13.9 -19.16,-30.08 -31.97,-47.25 -12.81,-16.98 -26.82,-35.15 -42.4,-53.22 -15.1,-18.07 -31.28,-36.13 -47.57,-53.21 -15.99,-16.77 -32.37,-32.86 -47.56,-46.56 -99.11,-86.96 -199,-171.94 -300.58,-253.75 -1.29,-0.89 -2.38,-1.99 -3.77,-2.48 -15.1,-12.21 -28.6,-21.35 -40.12,-27 -3.48,-2.09 -7.05,-3.68 -10.63,-5.17 -7.05,-2.58 -13.01,-3.47 -17.27,-2.58zm4577.18 1910.57c-6.65,1.39 -18.17,5.26 -34.65,11.52 -16.49,6.15 -37.14,14.49 -61.87,24.42 -147.36,60.16 -293.42,111.58 -438.7,151.39 -22.04,6.36 -45.97,13.21 -70.3,19.86 -24.13,6.85 -48.56,14 -71.9,20.25 -23.83,6.45 -46.07,12.81 -66.63,18.47 -11.41,3.07 -22.84,6.25 -32.47,9.13 -6.95,2.18 -13.5,3.87 -19.36,5.86 -91.75,28.39 -181.92,51.12 -268.61,68.3 -14.39,2.97 -24.42,5.36 -29.19,7.24 -5.56,2.09 -6.15,3.48 -2.48,4.67 3.87,1.19 12.11,1.79 24.53,1.79 12.11,0 29.39,-0.99 50.04,-2.58 137.23,-11.22 275.76,-33.96 415.27,-66.62 23.54,-5.56 49.65,-12.21 76.07,-19.95 26.8,-7.94 54.11,-16.78 81.02,-25.91 26.22,-9.14 51.94,-18.67 74.58,-27.7 10.42,-4.17 19.95,-8.34 28.79,-11.81 11.92,-4.97 21.45,-9.73 30.29,-14 94.43,-45.07 191.35,-95.9 291.74,-152.99 15.09,-8.44 24.62,-14.79 28.3,-18.26 2.28,-2.09 2.68,-3.18 1.59,-3.58 -0.69,-0.39 -2.78,-0.1 -6.06,0.5zm-3715.96 -1354.32c-2.99,-0.5 -3.48,2.48 -1.2,8.73 2.48,6.16 7.05,15.39 14.6,27.8 48.85,80.61 98.01,158.25 147.36,232.8 8.64,12.51 18.87,26.81 30.39,42 11.91,15.19 25.22,31.47 38.23,47.05 13.7,15.89 27.8,31.67 41.4,46.37 13.31,14.59 26.72,27.89 38.43,39.11 71.6,69.2 143.59,137.3 216.18,203.81 1.09,1.19 2.18,2.09 3.37,2.98 9.93,8.84 17.38,15.39 23.34,19.56 6.65,4.96 10.42,6.75 11.71,5.85 1.5,-0.39 0.5,-3.67 -3.17,-9.43 -3.87,-6.15 -9.83,-14.49 -18.77,-25.71 -52.93,-67.11 -105.36,-137.2 -157.39,-210.46 -8.04,-11.62 -17.78,-24.52 -28.4,-38.42 -11.12,-14.2 -22.84,-29.09 -35.15,-44.18 -12.12,-15.09 -24.73,-30.08 -36.74,-44.18 -12.31,-14.3 -24.23,-27.7 -34.66,-39.21 -69.31,-74.86 -138.02,-150.01 -206.74,-226.15 -2.78,-2.98 -5.46,-5.76 -7.94,-8.44 -7.84,-8.34 -14.8,-14.99 -19.86,-19.96 -6.06,-5.16 -10.33,-8.24 -13.21,-9.33 -0.29,-0.3 -1.19,-0.59 -1.78,-0.59zm-206.45 3.87c-4.07,0.69 -4.87,4.37 -2.78,11.52 2.09,7.24 6.95,17.86 15.69,31.37 55.41,90.04 111.51,176.11 167.32,258.31 9.53,13.9 21.75,29.49 35.65,45.87 13.9,16.77 29.09,33.35 45.48,50.93 16.18,16.87 32.77,33.25 48.95,48.24 15.39,14.5 30.39,27.6 44.09,38.82 1.09,0.99 1.99,1.99 2.68,2.38 87.39,70.59 173.87,141.08 261.36,210.86 13.4,10.63 24.42,18.67 32.07,23.33 7.74,4.38 12.81,6.16 15,5.56 1.88,-1.39 0.89,-5.35 -3.28,-12.01 -3.98,-6.55 -11.12,-16.28 -21.05,-28.59 -59.98,-73.76 -119.76,-151.29 -179.04,-233.1 -8.84,-12.51 -20.16,-26.9 -32.87,-42.49 -12.51,-15.19 -26.21,-31.67 -40.51,-47.85 -14,-16.18 -28.9,-32.36 -43.1,-47.55 -14.5,-15.39 -28.4,-29.88 -41.41,-41.8 -82.91,-78.82 -166.32,-157.94 -249.93,-235.98 -0.99,-1.09 -2.29,-2.18 -3.38,-3.37 -12.21,-11.02 -23.13,-19.86 -30.98,-25.42 -5.76,-3.87 -10.23,-6.25 -13.7,-7.64 -2.68,-0.8 -4.67,-1.29 -6.26,-1.39zm-1652.33 -612.24c-176.85,-58.77 -357.38,-109.1 -540.39,-152.88 -30.78,-7.45 -59.38,-10.22 -84.5,-8.84 -25.12,1.49 -47.17,6.65 -64.45,16.29 -17.27,8.83 -30.18,21.54 -37.04,37.72 -7.05,15.39 -8.34,34.75 -2.48,55.99 38.23,142.36 76.86,282.05 115.39,416.76 6.85,23.23 19.86,45.97 38.92,67.61 19.17,21.74 43,41.3 70.61,58.67 27.2,17.77 57.89,31.87 90.66,42.99 20.95,7.05 42.49,12.81 64.34,16.67 11.72,2.49 23.54,3.68 35.25,4.97 197.8,19.26 392.83,45.67 584.28,82.99 29.09,5.56 54.31,7.45 76.06,5.56 21.15,-1.58 38.23,-6.65 50.24,-15.19 12.12,-8.24 19.37,-19.06 21.55,-33.15 1.89,-14.1 -1.19,-30.28 -10.32,-49.15 -53.83,-109.7 -107.05,-225.45 -159.68,-346.77 -7.94,-18.56 -20.85,-37.82 -37.04,-56.88 -16.58,-19.56 -36.44,-39.02 -58.88,-57.18 -22.14,-17.67 -46.87,-35.15 -72.79,-49.54 -21.74,-12.91 -44.68,-23.83 -67.52,-32.27 -0.89,-0.3 -1.69,-0.59 -2.18,-0.89 -3.38,-1.59 -6.46,-2.48 -10.03,-3.48zm516.55 208.09c-17.38,-2.78 -31.77,-1.89 -42.3,2.77 -10.13,4.87 -16.78,13.61 -18.67,25.02 -1.89,11.62 1.29,26.61 9.54,44.38 55.4,116.85 111.51,228.04 167.81,333.86 9.23,17.77 24.03,36.44 41.7,55.1 18.18,18.67 39.53,37.23 62.86,54.21 23.24,16.97 48.56,32.46 74.28,46.36 17.18,9.43 34.75,17.67 51.73,24.72 8.24,2.78 15.99,5.86 23.83,8.83 145.28,50.04 288.07,107.72 428.18,172.35 21.45,10.03 39.32,16.38 53.82,19.26 13.9,2.98 24.33,2.38 30.98,-1.19 6.16,-3.68 8.14,-10.43 6.06,-20.65 -1.79,-9.83 -8.14,-22.74 -19.17,-38.52 -63.55,-92.93 -127.1,-191.31 -190.35,-295.74 -9.44,-15.59 -22.34,-32.97 -37.93,-51.23 -15.29,-18.57 -33.07,-36.83 -52.43,-55.3 -19.07,-18.36 -39.63,-35.94 -60.48,-52.02 -17.97,-14.3 -37.04,-27.1 -55.11,-38.02 -2.28,-1.79 -4.77,-2.78 -7.05,-4.37 -133.26,-76.24 -268.11,-146.23 -406.33,-209.87 -6.55,-3.37 -12.91,-6.05 -19.36,-8.53 -15.2,-5.57 -29.4,-9.44 -41.61,-11.42zm835.2 477.61c-5.85,2.68 -8.34,7.94 -6.55,17.18 1.49,8.93 6.85,20.85 16.48,36.33 64.55,101.66 129.49,197.27 194.53,287.8 11.02,15.69 25.92,32.67 42.6,49.54 16.88,17.57 36.25,34.95 56.4,52.12 19.96,16.68 41.21,33.46 62.06,48.05 14.7,10.53 29.1,20.35 43.5,29.09 5.26,3.38 10.92,6.55 15.98,9.53 111.02,63.54 221.04,129.75 331.17,197.76 16.88,10.32 29.98,17.27 40.31,21.54 10.03,3.77 16.58,4.86 19.46,2.88 2.49,-2.19 1.79,-7.35 -2.28,-15.19 -4.57,-8.14 -12.41,-18.76 -24.53,-32.36 -69.7,-80.71 -139.12,-166.69 -208.33,-258.02 -10.82,-14 -23.83,-29.78 -38.72,-46.16 -14.5,-16.58 -31.18,-33.96 -48.36,-51.13 -17.38,-17.37 -34.96,-33.85 -52.83,-49.44 -15.19,-13.9 -30.48,-26.31 -44.98,-37.33 -1.99,-1.79 -3.87,-3.28 -5.96,-4.76 -104.86,-78.23 -210.61,-154.28 -317.36,-227.64 -17.97,-11.92 -33.36,-20.65 -45.48,-25.52 -0.4,-0.1 -0.89,-0.2 -1.69,-0.6 -11.22,-4.16 -19.76,-5.35 -25.42,-3.67zm-2646.12 -985.71c-6.15,-1.09 -12.41,-2.18 -18.56,-3.37 -237.82,-37.33 -478.63,-68.5 -723.1,-93.12 -41.41,-3.78 -80.83,-3.58 -115.88,1.09 -35.85,4.57 -67.33,12.7 -93.34,24.42 -26.51,11.61 -47.27,26.11 -60.47,43.38 -13.21,16.98 -19.07,37.04 -15.89,58.97 21.84,149.41 39.32,307.66 53.72,470.77 2.58,28.49 13.8,57.18 32.27,84.78 18.67,28.1 44.49,54.6 75.37,78.13 31.08,23.83 67.03,43.88 106.35,59.27 24.13,9.83 49.55,17.77 75.96,23.13 16.39,3.28 32.97,5.86 49.45,7.35 255.2,24.02 514.87,37.03 775.03,48.84 38.93,1.59 74.87,-2.08 106.55,-10.13 31.38,-8.03 57.99,-20.25 79.34,-35.63 20.95,-15.2 36.34,-33.36 45.08,-54.71 8.54,-20.65 10.72,-43.38 4.86,-68 -33.36,-143.15 -66.92,-289.09 -101.28,-437.61 -5.46,-22.04 -17.47,-44.28 -34.76,-65.22 -17.17,-21.45 -39.42,-41.5 -66.33,-59.37 -25.81,-18.66 -56.2,-34.85 -88.97,-47.55 -3.18,-1.19 -6.35,-2.39 -9.73,-3.78 -24.23,-9.13 -49.85,-16.47 -75.67,-21.64zm3609.32 1396.91c-1.98,-0.29 -0.99,3.08 2.29,8.44 2.88,6.16 8.54,14.4 16.78,25.22 52.93,71.68 106.05,139.28 159.87,204.21 9.14,10.52 19.96,22.93 31.87,35.54 11.82,12.81 24.83,26.51 37.94,39.31 13.4,13.5 26.81,26.21 39.92,38.32 12.61,11.62 24.82,22.34 35.84,31.18 65.34,53.7 131.18,106.22 198.4,155.36 0.9,0.9 2.29,1.69 3.28,2.58 8.84,6.56 15.99,10.92 20.55,13.81 5.37,3.37 8.25,4.36 8.64,3.27 0.4,-0.89 -1.98,-4.27 -6.25,-9.03 -4.77,-4.97 -11.92,-12.12 -21.35,-21.45 -57.7,-54.8 -114.69,-113.27 -171,-175.12 -8.63,-9.83 -18.86,-20.35 -30.08,-32.17 -11.02,-12.01 -23.14,-24.22 -34.96,-36.53 -12.41,-12.51 -24.32,-24.82 -36.04,-36.53 -11.62,-11.62 -22.74,-22.34 -32.87,-31.87 -63.25,-59.96 -125.61,-121.41 -187.67,-184.56 -2.39,-2.28 -4.67,-4.66 -7.05,-6.75 -6.86,-6.94 -12.71,-12.41 -17.09,-16.38 -4.27,-3.67 -7.64,-5.85 -9.73,-6.65 -0.39,-0.2 -0.99,-0.49 -1.29,-0.2zm-113.99 27.01c-1.69,0.79 -1.39,4.66 2.09,10.72 3.17,6.55 9.92,16.08 18.86,27.9 60.28,79.51 121.05,154.97 182.11,226.05 10.13,11.41 22.75,25.01 36.35,39.01 14.1,14.4 28.99,28.59 44.09,42.69 15.69,14.3 31.38,28.2 46.27,40.51 14.1,11.81 27.21,22.23 39.32,31.07 1,1.09 1.99,1.69 2.68,2.28 76.56,56.89 153.32,111.29 231.47,163.51 12.31,7.84 21.85,13.8 27.9,16.68 6.26,3.27 10.03,4.27 10.53,2.87 0.5,-1.38 -2.09,-4.96 -7.35,-10.42 -4.86,-5.85 -13.01,-13.4 -24.03,-23.73 -65.54,-59.66 -130.68,-123.79 -194.73,-192.39 -9.63,-10.52 -21.54,-22.64 -34.35,-35.64 -12.32,-12.51 -26.12,-26.21 -40.12,-39.41 -13.8,-13.7 -28,-26.91 -41.31,-39.52 -13.21,-12.5 -26.11,-23.92 -37.63,-34.15 -73.39,-63.73 -146.86,-129.75 -219.06,-196.46 -1.09,-0.9 -1.78,-1.79 -3.07,-2.49 -10.73,-9.92 -19.17,-17.17 -25.92,-21.94 -4.57,-3.47 -8.44,-5.66 -10.73,-6.55 -1.68,-0.59 -2.68,-0.79 -3.37,-0.59zm2719.5 1148.22c-4.97,-0.59 -15,0.1 -29.19,2.19 -15.1,2.18 -34.06,5.46 -57.5,9.82 -137.03,25.12 -273.96,40.01 -408.61,43.29 -20.76,0.59 -43,1.49 -66.53,2.18 -22.74,0.8 -46.67,1.29 -69.71,1.89 -22.64,0.6 -44.79,1.09 -65.34,1.78 -10.53,0.5 -21.25,0.5 -30.78,0.9 -8.05,0.59 -15.29,0.69 -21.95,1.29 -97.31,4.87 -190.75,3.87 -282.4,-2.19 -15.39,-1.09 -26.22,-1.58 -32.37,-0.89 -6.36,0.5 -8.94,1.99 -6.76,4.07 2.19,2.29 8.84,5.07 19.27,8.74 11.22,3.17 25.72,7.34 45.28,11.22 126.7,27 254.4,42.98 382,48.34 22.24,1.2 46.17,1.2 71.79,0.9 25.22,-0.8 51.74,-2.29 77.85,-4.47 25.82,-2.18 51.14,-5.16 74.18,-8.64 9.13,-1.48 17.97,-2.78 26.61,-4.36 12.61,-2.19 23.64,-4.57 34.16,-7.05 98.9,-22.74 201.68,-52.72 307.83,-89.65 16.38,-5.76 27.3,-10.42 32.77,-13.8 3.67,-2.48 4.96,-4.17 2.48,-5.06 -0.6,-0.4 -1.49,-0.5 -3.08,-0.5zm-2877.49 -1087.86c-2.78,1.49 -2.38,6.15 0.9,13.6 3.77,7.64 11.02,18.56 21.35,31.76 70,88.36 141.1,171.65 212,249.69 11.92,13 26.71,27.49 42.8,42.58 16.78,15.49 34.85,30.68 53.03,45.47 18.26,14.99 37.23,29.49 55.4,42.59 12.91,9.43 25.92,17.87 37.34,25.42 4.47,2.98 8.84,5.95 13.6,8.53 91.95,56.79 184.3,112.19 278.04,165.4 14.6,8.34 25.72,14.1 33.07,16.87 7.64,2.88 12.01,3.38 12.91,1.59 0.59,-1.98 -2.19,-6.15 -8.25,-12.41 -6.25,-6.65 -15.49,-15.09 -28.1,-26.31 -76.06,-65.12 -151.03,-135.7 -226,-212.05 -11.13,-11.91 -24.63,-24.92 -39.52,-38.81 -14.6,-14.1 -30.78,-28.6 -46.77,-42.89 -16.29,-14.49 -32.67,-28.79 -48.96,-42.49 -14.5,-12.01 -28.69,-23.73 -41.61,-33.66 -0.69,-0.49 -1.68,-1.29 -2.77,-1.98 -88.88,-67.01 -177.05,-135.22 -264.63,-203.52 -14.8,-10.82 -26.82,-19.16 -35.65,-23.82 -3.58,-1.89 -6.16,-3.28 -8.84,-4.37 -4.07,-1.59 -7.35,-1.79 -9.34,-1.19zm2589.72 1053.41c-4.17,-0.49 -12.11,-0.59 -24.42,0.5 -12.22,0.79 -27.41,2.09 -46.98,4.17 -114.68,11.71 -229.27,14.99 -340.99,9.43 -17.28,-0.89 -35.94,-1.79 -55.8,-2.88 -19.36,-0.89 -39.52,-1.88 -58.79,-2.68 -19.36,-1.09 -38.13,-2.18 -55.51,-3.27 -12.51,-0.9 -24.52,-1.49 -34.95,-2.09 -3.67,-0.3 -7.25,-0.4 -10.52,-0.5 -82.82,-3.27 -162.66,-11.12 -241.5,-23.62 -12.91,-2.09 -22.04,-3.08 -27.8,-3.58 -5.76,0.2 -7.55,0.7 -5.86,2.48 1.59,1.89 6.95,4.17 15.69,7.75 9.03,3.27 21.64,7.44 37.63,11.71 105.26,29.39 212.2,49.74 320.04,62.15 18.18,2.08 38.73,4.07 59.68,4.86 21.15,1.39 43.49,1.99 65.24,1.99 21.75,0 42.9,-0.6 62.56,-1.89 11.91,-0.49 22.84,-1.29 33.07,-2.38 6.25,-0.6 12.31,-1.09 17.77,-2.08 85.1,-10.63 172.68,-26.51 262.44,-47.76 13.61,-3.27 23.04,-6.15 27.71,-8.04 4.07,-1.78 4.67,-3.07 2.88,-3.67 0.2,-0.2 -0.8,-0.7 -1.59,-0.6zm-1946.46 -695.03c-0.59,1.19 1.09,4.27 5.36,9.93 4.37,5.76 11.72,13.8 21.85,24.03 65.24,65.42 131.47,126.77 197.91,183.06 11.12,9.73 24.32,19.85 38.42,30.48 14.1,10.72 29.3,21.84 44.79,32.26 15.29,10.52 30.38,20.65 44.88,29.59 13.5,8.43 26.21,15.98 37.44,22.03 0.89,0.5 1.78,1.1 2.08,1.49 70.6,38.82 142.5,74.56 215.48,106.82 11.52,4.97 19.96,8.24 25.42,9.83 5.36,1.59 7.25,1.69 6.85,0.5 -0.3,-1.49 -3.87,-4.57 -10.43,-8.44 -6.45,-4.66 -15.58,-10.13 -27.1,-17.17 -71.99,-42.99 -142.4,-90.64 -211.71,-143.16 -10.82,-7.94 -23.24,-17.17 -36.44,-26.9 -13.21,-9.73 -26.81,-19.86 -40.91,-29.98 -13.81,-9.83 -27.71,-19.96 -40.72,-29.39 -12.91,-9.23 -25.62,-18.36 -35.94,-25.02 -68.52,-46.56 -135.25,-95.6 -201.48,-147.03 -1.19,-0.69 -1.99,-1.48 -2.88,-2.08 -9.63,-7.64 -17.18,-13.01 -22.64,-16.48 -3.08,-1.98 -5.96,-3.28 -7.55,-3.87 -1.39,-0.8 -2.18,-0.8 -2.68,-0.5zm-1706.55 -590.89c-24.92,-7.94 -46.37,-11.81 -64.35,-11.52 -18.07,0.1 -31.97,3.68 -41.8,11.13 -9.93,6.75 -14.89,17.07 -15.09,30.67 0.2,12.81 5.26,28.29 16.78,46.17 76.46,118.73 153.62,227.63 230.97,328.1 13.6,16.88 31.77,33.85 53.92,50.63 21.94,16.08 47.16,31.57 74.27,45.07 27.41,14.5 55.81,26.61 84.41,36.73 13.4,4.67 26.31,8.84 39.62,12.22 14.59,4.17 28.89,7.84 43.09,10.62 153.52,29.29 304.06,69.29 452.71,117.54 23.03,7.55 40.81,11.32 54.51,12.61 13.8,0.99 23.14,-0.79 27.7,-5.56 4.67,-4.47 4.57,-11.71 -0.19,-21.64 -4.47,-9.73 -13.9,-22.04 -28.2,-36.83 -83.51,-86.47 -167.32,-180.39 -250.63,-282.15 -13.01,-15.38 -28.9,-32.06 -47.57,-49.34 -18.37,-16.68 -39.12,-34.25 -60.67,-50.63 -22.14,-16.57 -45.08,-32.66 -68.12,-46.65 -14.6,-9.14 -29.99,-17.78 -44.78,-25.12 -7.55,-3.77 -15.29,-7.55 -22.54,-10.62 -55.51,-24.03 -110.92,-46.56 -167.12,-68.31 -87.78,-34.05 -176.85,-65.12 -266.92,-93.12zm1645.58 665.65c-1.09,1.29 0.7,5.46 5.86,11.61 5.16,6.45 13.31,15.19 24.93,26.81 75.86,72.47 152.32,139.58 229.18,200.73 13.5,10.62 28.7,21.64 45.08,33.26 16.28,11.52 34.36,23.23 52.03,34.25 18.08,11.02 36.05,21.74 53.23,31.17 12.71,7.05 24.82,13.31 36.54,18.86 3.48,1.89 6.45,3.28 10.03,4.97 81.92,38.62 165.43,73.76 250.43,105.13 13.5,5.17 23.24,8.04 29.29,9.34 6.16,1.38 9.04,1.19 7.75,-0.9 -0.3,-1.59 -4.37,-5.06 -12.22,-9.83 -7.34,-4.17 -18.17,-10.52 -31.87,-18.16 -82.62,-44.98 -164.24,-96 -245.07,-153.48 -12.41,-8.74 -26.91,-18.67 -41.7,-28.7 -15.5,-10.52 -31.38,-21.34 -47.27,-32.06 -16.29,-10.63 -32.37,-21.35 -47.07,-31.07 -13.4,-8.54 -25.82,-16.58 -37.04,-23.33 -1.39,-1 -3.18,-2.09 -4.96,-3.08 -78.95,-48.35 -157.59,-99.88 -235.04,-153.29 -13.01,-9.03 -23.24,-15.09 -29.79,-18.86 -2.39,-1.19 -4.37,-2.18 -6.16,-2.88 -3.37,-1.39 -5.56,-1.59 -6.16,-0.49zm-791.91 -295.84c-11.81,-3.38 -20.95,-3.68 -25.22,-0.2 -4.17,3.47 -5.16,9.73 -1.39,19.16 3.97,9.53 11.82,21.64 24.23,36.23 84.9,98.39 169.8,189.12 254.8,272.91 14.2,14.2 32.37,29.49 52.43,44.87 20.36,15 42.9,30.48 65.84,45.27 23.13,14.5 46.96,28.5 69.8,40.41 11.72,6.15 22.84,11.81 33.96,17.37 10.53,4.97 20.66,9.44 30.39,13.41 115.78,48.44 231.27,98.68 347.84,148.61 17.88,7.55 31.68,12.51 41.31,14.49 9.24,2.09 14.6,1.69 15.89,-1.18 1.09,-2.78 -1.59,-7.95 -8.64,-15.29 -7.05,-7.65 -18.27,-17.38 -33.36,-29.29 -89.37,-70.19 -178.64,-147.23 -268.01,-232.01 -13.61,-12.9 -30.09,-27.1 -47.56,-41.79 -17.58,-14.8 -36.85,-30.38 -56.51,-45.17 -19.56,-15.19 -39.72,-29.89 -59.28,-43.29 -13.01,-9.43 -26.11,-17.77 -38.03,-25.51 -6.06,-3.48 -11.62,-6.85 -17.18,-10.23 -111.21,-64.63 -222.83,-128.26 -334.73,-189.22 -12.42,-6.25 -23.14,-11.71 -32.87,-15.48 -5.17,-1.69 -9.63,-3.08 -13.71,-4.07zm-1446.19 -507.4c-11.52,-2.39 -23.33,-5.36 -34.65,-6.66 -195.82,-30.47 -395.51,-48.34 -597.48,-58.67 -34.56,-1.49 -66.14,1.89 -93.24,9.73 -27.71,7.45 -51.54,19.16 -69.71,34.65 -18.97,15.49 -31.78,34.35 -38.43,55.1 -6.26,21.64 -6.46,45.07 1.69,69.79 54.61,165.49 110.22,320.36 167.61,463.81 10.33,25.42 28.2,47.56 51.44,66.72 24.03,19.16 53.32,34.25 86.29,45.57 33.27,11.02 70.2,18.16 107.94,20.84 15.59,1.19 31.28,1.69 46.87,1 22.94,-0.4 45.78,-2.39 68.32,-5.86 221.93,-35.84 439,-56.79 651.3,-58.57 31.87,-0.2 59.58,-3.88 81.72,-10.33 21.85,-6.35 38.33,-15.19 49.65,-26.11 11.52,-10.62 16.58,-24.02 16.29,-39.21 -0.3,-14.89 -6.56,-31.57 -19.86,-49.74 -74.58,-105.03 -148.95,-220.39 -222.93,-345.28 -11.02,-18.56 -26.91,-37.82 -46.77,-55.89 -19.86,-18.07 -43.59,-35.44 -69.21,-51.53 -25.92,-16.18 -53.62,-30.18 -83.02,-41.99 -17.67,-6.65 -35.44,-12.51 -53.82,-17.37zm3496.92 1392.94c-8.74,-2.29 -20.96,-5.66 -36.15,-9.14 -89.86,-22.04 -178.84,-50.23 -266.22,-85.37 -13.5,-5.46 -28.7,-11.32 -44.58,-17.48 -15.79,-6.25 -32.47,-13.1 -48.66,-19.46 -16.29,-6.25 -32.37,-13.1 -47.17,-18.66 -13.6,-5.46 -26.31,-10.32 -37.04,-14.39 -1.19,-0.5 -1.78,-0.8 -2.97,-1.29 -74.28,-28 -147.36,-59.97 -219.26,-94.81 -11.81,-5.66 -20.65,-9.83 -26.61,-11.82 -5.66,-2.08 -8.64,-2.28 -8.64,-0.99 0.5,1.79 3.68,4.96 9.93,10.03 6.56,4.96 15.69,11.61 28.3,19.55 82.02,53.12 165.34,99.97 249.15,140.18 14.49,6.95 30.88,14.2 48.15,21.35 16.89,6.95 34.96,13.9 53.13,20.25 18.17,6.15 35.95,12.11 52.73,16.98 12.31,3.77 23.83,6.75 34.45,9.43 3.28,0.79 6.86,1.98 9.74,2.28 77.35,17.67 155.9,30.97 236.82,39.81 12.81,1.79 21.45,2.18 26.62,1.79 4.86,-0.1 6.25,-1 4.27,-2.39 -0.9,-0.29 -2.19,-1.29 -4.27,-2.08 -2.89,-1.09 -6.86,-2.18 -11.72,-3.77zm-1346.2 -477.92c-1.59,2.09 0.99,7.25 6.45,14.5 5.67,7.25 15.7,17.57 29,29.68 90.96,80.61 181.22,153.68 271.98,219.9 15.69,11.21 33.56,23.32 53.52,35.44 19.76,12.01 41.11,24.12 62.36,35.54 21.55,11.31 43.5,22.43 63.55,31.47 10.83,4.96 21.65,9.63 31.98,13.9 8.34,3.37 16.38,6.35 24.12,9.53 97.81,36.04 197.02,69.29 299.39,97.88 15.49,4.37 26.91,6.56 34.16,7.55 7.15,0.79 10.23,-0.4 9.44,-2.48 -1.3,-2.39 -6.16,-6.06 -14.8,-11.02 -8.84,-5.37 -21.55,-12.02 -37.73,-19.76 -97.22,-47.35 -193.54,-101.86 -289.16,-164.3 -14.6,-9.53 -31.38,-20.15 -49.65,-31.57 -17.38,-10.72 -36.55,-22.14 -55.21,-33.06 -19.07,-11.32 -37.93,-22.73 -55.71,-32.76 -12.31,-7.15 -24.33,-13.6 -35.15,-19.46 -4.87,-2.78 -9.53,-5.06 -14,-7.44 -95.23,-49.05 -189.07,-100.77 -282.41,-153.88 -15.39,-8.54 -27.5,-14.79 -36.24,-18.17 -8.54,-3.17 -13.8,-3.77 -15.89,-1.49zm1487.1 574.91c-10.62,-2.18 -24.62,-5.07 -42.99,-8.34 -105.36,-18.27 -210.52,-44.97 -314.19,-80.41 -15.59,-5.37 -33.76,-11.02 -51.93,-17.08 -18.97,-6.35 -38.03,-12.71 -56.7,-18.86 -19.17,-6.36 -38.03,-12.61 -54.81,-18.17 -12.61,-4.07 -24.23,-7.84 -34.76,-11.22 -4.37,-1.29 -8.44,-2.38 -12.21,-3.67 -87.09,-26.01 -172.19,-56.69 -255.7,-90.74 -13.6,-5.66 -24.03,-9.23 -31.08,-11.12 -6.65,-2.08 -10.03,-1.68 -9.63,0.3 0.3,1.89 3.87,5.96 11.42,11.81 7.45,5.17 18.57,12.71 33.17,21.25 97.41,57.48 195.42,106.82 294.52,148.32 16.28,6.95 35.45,14.39 56,21.34 19.96,7.25 41.31,13.9 62.86,19.56 21.45,6.15 42.3,11.52 61.86,15.49 11.32,2.58 22.15,4.66 31.68,6.55 7.74,1.19 14.6,2.28 20.85,3.37 89.47,12.61 181.52,20.36 276.15,22.34 14.4,0.5 24.93,0.2 30.58,-0.79 6.06,-0.8 7.16,-2.29 4.37,-3.88 -0.69,-0.49 -1.68,-1.19 -3.17,-1.78 -3.58,-1.29 -9.14,-2.68 -16.29,-4.27zm179.44 119.82c-12.32,-1.98 -29.59,-4.36 -50.55,-6.55 -125.71,-13.4 -250.83,-36.83 -375.75,-71.87 -18.67,-5.07 -40.01,-10.63 -62.35,-16.58 -21.65,-5.66 -44.49,-11.62 -67.13,-17.67 -22.44,-5.66 -44.39,-11.22 -65.04,-16.48 -10.53,-2.68 -20.95,-5.17 -30.39,-7.35 -8.74,-1.99 -16.98,-3.87 -24.72,-5.76 -103.87,-21.74 -205.16,-49.54 -304.45,-80.11 -17.08,-5.36 -29.1,-8.54 -37.64,-9.73 -8.24,-1.19 -12.21,-0.3 -11.92,2.78 0.1,2.58 4.48,7.25 13.31,14 8.94,6.05 22.15,13.99 39.72,23.43 117.67,62.04 234.94,113.76 351.82,155.86 19.76,7.04 42.5,14.49 67.22,21.24 23.64,6.46 49.56,12.91 75.17,18.17 25.23,5.36 50.45,9.53 74.08,12.81 8.34,1.29 16.78,2.08 24.73,2.97 13.8,1.49 26.71,2.49 38.13,3.18 106.05,4.97 215.57,4.27 328.88,-4.37 16.88,-1.58 28.99,-3.17 35.84,-5.26 6.95,-1.79 8.54,-4.07 5.17,-6.45 -0.7,-0.5 -1.99,-0.99 -3.38,-1.49 -4.17,-1.39 -11.12,-3.18 -20.75,-4.77zm-1778.95 -513.25c-11.61,-1.89 -18.76,-0.6 -21.15,3.57 -2.68,3.67 -0.59,10.13 5.76,18.96 6.85,8.84 18.67,20.06 35.16,33.06 111.71,87.86 222.42,164.9 331.06,233.7 18.86,11.91 41.01,24.12 65.34,36.14 24.32,12.11 50.74,24.02 76.95,34.94 26.62,10.42 53.13,20.45 78.55,28.69 7.84,2.58 15.39,5.26 23.13,7.25 16.29,5.16 31.98,9.43 45.88,12.51 120.05,28.09 241.79,54.8 367.01,77.23 19.16,3.18 32.97,4.57 42.2,4.37 8.94,-0.3 12.61,-2.18 11.62,-5.46 -0.99,-3.18 -7.25,-7.84 -17.38,-13.7 -10.52,-5.76 -25.82,-12.71 -45.38,-21.15 -114.39,-49.04 -230.17,-106.91 -346.25,-174.82 -17.28,-10.33 -37.64,-21.84 -59.38,-32.96 -21.06,-11.22 -44.09,-22.93 -66.83,-34.45 -22.74,-11.51 -45.98,-22.53 -67.53,-32.36 -10.62,-4.77 -21.15,-9.53 -30.78,-13.7 -10.32,-4.47 -20.35,-8.54 -29.39,-12.01 -63.55,-24.33 -126.21,-48.75 -189.16,-73.27 -54.42,-21.05 -108.54,-42.29 -162.56,-63.04 -19.86,-7.55 -35.54,-12.01 -46.87,-13.5zm-440.88 -155.87c-149.74,-44.77 -301.87,-81.1 -456.58,-106.42 -26.41,-4.57 -48.76,-4.96 -66.53,-2.28 -17.87,2.48 -30.98,8.53 -38.63,16.97 -8.44,8.64 -11.12,19.56 -7.94,32.77 3.67,12.9 12.51,27.89 28.5,43.68 107.83,107.22 214.28,200.93 319.34,284.03 18.57,14.69 42.1,28.49 68.92,41.19 26.81,12.61 56.6,23.83 87.68,34.16 30.78,9.63 62.66,17.77 93.73,24.62 7.65,1.29 15.3,2.78 22.35,3.97 23.04,4.37 44.78,7.15 65.34,9.03 155.9,12.81 310.6,37.53 464.81,68.8 23.04,4.66 40.91,6.75 53.53,6.55 12.41,-0.3 19.96,-2.78 22.14,-7.44 2.48,-5.07 -0.89,-11.92 -8.84,-20.55 -8.14,-8.74 -21.84,-19.36 -40.41,-32.17 -107.54,-72.37 -217.27,-153.28 -327.99,-244.61 -16.78,-13.7 -36.84,-28.3 -59.28,-42.99 -21.84,-14.5 -46.47,-29.39 -71.49,-43.29 -24.83,-13.99 -50.75,-27.1 -75.77,-38.22 -10.72,-4.96 -21.75,-9.73 -32.37,-13.8 -0.99,-0.49 -2.18,-0.79 -3.58,-1.29 -12.71,-4.76 -24.82,-8.93 -36.93,-12.71zm-2976.49 -1001.29c-21.05,-5.56 -43.1,-10.03 -65.64,-12.21 -16.68,-1.99 -33.66,-3.08 -50.74,-2.78 -268.01,1.09 -535.02,1.09 -795.58,-14.3 -44.88,-2.48 -87.19,0.99 -125.52,10.62 -38.92,9.14 -73.08,23.83 -101.68,43.98 -28.99,20.26 -52.13,45.27 -67.62,74.46 -15.89,29.68 -23.73,63.63 -22.04,100.37 11.51,251.37 19.85,506.7 27.4,759.36 1.29,44.58 12.91,87.16 33.17,124.09 20.06,37.63 49.05,69.89 84.1,94.71 35.75,24.62 77.75,41.6 123.53,49.25 15.89,2.48 31.88,3.97 48.26,4.16 32.08,0.8 65.44,-2.28 99.89,-10.02 297.8,-67.41 606.72,-157.45 916.43,-242.24 46.38,-12.6 88.08,-30.57 124.03,-52.02 36.15,-21.34 66.43,-45.76 89.77,-71.67 22.74,-26.11 38.92,-53.71 47.56,-81.51 8.04,-27.7 7.94,-56.19 -0.4,-84.48 -49.94,-160.13 -97.81,-331.39 -145.37,-512.47 -6.95,-26.9 -21.25,-52.22 -41.71,-74.85 -20.65,-23.23 -46.37,-43.68 -76.85,-61.15 -17.38,-9.83 -36.64,-18.97 -56.6,-26.81 -14.2,-5.46 -29,-10.22 -44.39,-14.49zm2039.6 889.61c-30.29,-11.22 -62.36,-20.25 -95.52,-26.21 -12.81,-2.08 -25.82,-4.27 -38.13,-5.56 -20.56,-2.08 -40.92,-2.58 -60.38,-1.59 -216.17,10.43 -437.91,41.7 -664.81,91.44 -39.12,7.84 -74.37,21.54 -104.26,38.32 -30.39,17.27 -55.51,38.02 -74.08,60.85 -19.16,22.74 -31.18,48.15 -35.65,73.27 -4.76,25.81 -1.09,51.22 11.82,75.15 89.27,162.81 181.22,302.89 274.27,423.61 16.77,21.74 41.8,37.53 73.48,47.06 31.57,10.52 69.21,14.89 110.12,13.89 40.91,-0.99 84.9,-6.84 129.29,-17.07 7.54,-1.69 15.39,-3.47 22.83,-5.16 36.65,-9.83 73.19,-21.94 108.34,-36.63 241.79,-100.77 475.74,-170.46 702.94,-209.18 33.36,-5.76 61.37,-13.6 82.91,-22.63 20.86,-9.53 36.35,-20.16 44.89,-32.17 8.63,-11.61 10.92,-24.62 6.25,-38.62 -4.47,-13.9 -15.69,-28.19 -33.76,-43.48 -104.17,-86.37 -209.92,-184.55 -315.87,-298.03 -15.89,-16.58 -36.74,-32.86 -61.47,-47.55 -23.03,-13.7 -49.55,-26.61 -77.95,-37.62 -1.59,-0.7 -3.37,-1.4 -5.26,-2.09zm-1644 273.21c-130.87,20.25 -353.3,97.49 -482.49,144.44 -286.28,104.54 -567.59,169.07 -845.53,361.07 -46.97,32.96 -89.07,71.98 -124.12,116.25 -35.25,44.28 -63.55,93.62 -82.82,145.04 -19.36,52.12 -29.39,106.92 -27.11,159.54 13.21,370.7 30.79,720.25 55.02,1041.2 4.37,58.28 22.74,103.55 51.93,134.23 30.09,31.17 71.49,46.96 121.34,46.66 49.65,0 107.74,-15.49 170.3,-45.57 5.07,-2.38 10.62,-5.06 15.29,-7.75 58.59,-29.38 119.96,-70.58 182.02,-121.71 381.7,-312.91 769.07,-619.58 1148.29,-881.37 55.41,-38.02 103.97,-78.72 144.78,-118.93 40.61,-40.31 73.48,-80.12 96.82,-117.74 23.63,-37.63 38.82,-73.46 43.39,-105.93 5.16,-32.06 0.59,-61.35 -14.8,-86.86 -85.99,-141.18 -169.8,-304.48 -250.13,-493.01 -28.7,-66.51 -67.32,-138.09 -130.48,-162.41 -20.95,-8.05 -44.78,-11.13 -71.7,-7.15z"/>
  </g>
  <rect class="fil2" x="-2.93" y="10002.92" width="30000" height="10000"/>
 </g>
</svg>
